<?xml version="1.0" encoding="UTF-8"?>
<svg xmlns="http://www.w3.org/2000/svg" xmlns:xlink="http://www.w3.org/1999/xlink" viewBox="0 0 200.1 200.13">
  <defs>
    <style>
      .cls-1 {
        fill: url(#linear-gradient);
      }

      .cls-2 {
        fill: #006eb9;
      }

      .cls-3 {
        fill: #fff;
      }

      .cls-4 {
        fill: #221e1f;
      }

      .cls-5 {
        fill: url(#linear-gradient-2);
      }
    </style>
    <linearGradient id="linear-gradient" x1="5.6" y1="161.59" x2="29.82" y2="161.59" gradientUnits="userSpaceOnUse">
      <stop offset=".11" stop-color="#024fa3"/>
      <stop offset=".55" stop-color="#01418d"/>
      <stop offset="1" stop-color="#003173"/>
    </linearGradient>
    <linearGradient id="linear-gradient-2" x1="-.97" y1="167.29" x2="34.28" y2="167.29" gradientUnits="userSpaceOnUse">
      <stop offset="0" stop-color="#00b3eb"/>
      <stop offset="1" stop-color="#3b55a6"/>
    </linearGradient>
  </defs>
  <g id="Background">
    <rect class="cls-3" x="-22.19" width="242.65" height="200.13"/>
  </g>
  <g id="logo">
    <g>
      <g>
        <g>
          <g>
            <path class="cls-2" d="m22.27,113.82v5.44h-2.89v-12.12c0-1.53.89-2.42,2.42-2.42h7.07v2.76h-6.04c-.35,0-.56.21-.56.56v3.02h6.15v2.76h-6.15Z"/>
            <path class="cls-2" d="m31.03,104.73h2.89v8.78c0,1.86,1.4,3.19,3.3,3.19s3.3-1.32,3.3-3.19v-8.78h2.89v8.78c0,3.45-2.59,5.95-6.19,5.95s-6.19-2.5-6.19-5.95v-8.78Z"/>
            <path class="cls-2" d="m46.78,104.73h2.89v14.54h-2.89v-14.54Zm7.18,6.51c-.19.22-.24.32-.24.48s.07.28.22.47l5.65,7.09h-3.67l-4.57-5.71c-.48-.6-.75-1.14-.75-1.66s.28-1.1.78-1.72l4.48-5.46h3.56l-5.46,6.51Z"/>
            <path class="cls-2" d="m61.26,104.73h2.89v8.78c0,1.86,1.4,3.19,3.3,3.19s3.3-1.32,3.3-3.19v-8.78h2.89v8.78c0,3.45-2.59,5.95-6.19,5.95s-6.19-2.5-6.19-5.95v-8.78Z"/>
            <path class="cls-2" d="m76.03,112c0-4.42,3.23-7.46,7.64-7.46s7.65,3.04,7.65,7.46-3.23,7.46-7.65,7.46-7.64-3.04-7.64-7.46Zm12.36,0c0-2.76-1.96-4.7-4.72-4.7s-4.72,1.94-4.72,4.7,1.96,4.7,4.72,4.7,4.72-1.94,4.72-4.7Z"/>
            <path class="cls-2" d="m94.06,104.73h2.89v14.54h-2.89v-14.54Zm7.18,6.51c-.19.22-.24.32-.24.48s.07.28.22.47l5.65,7.09h-3.67l-4.57-5.71c-.48-.6-.75-1.14-.75-1.66s.28-1.1.78-1.72l4.48-5.46h3.56l-5.46,6.51Z"/>
            <path class="cls-2" d="m117.68,115.88h-6.23l-1.19,3.39h-2.98l4.74-12.66c.54-1.44,1.16-1.98,2.5-1.98s2.16.54,2.7,1.98l4.77,12.66h-3.06l-1.25-3.39Zm-5.26-2.76h4.25l-1.92-5.26c-.06-.13-.11-.21-.24-.21-.11,0-.19.07-.22.21l-1.86,5.26Z"/>
            <path class="cls-2" d="m132.67,116.03c-.09.07-.19.17-.19.3,0,.11.09.19.21.19h6.49v2.76h-7.63c-1.42,0-2.59-.82-2.59-2.35,0-1.23.99-2.18,2.07-2.98l3.41-2.57c.89-.67,1.88-1.29,1.88-2.39s-.9-1.72-2.09-1.72c-1.32,0-2.48.95-2.5,2.31h-2.98c.15-3.02,2.35-5.03,5.5-5.03,2.87,0,5.03,1.57,5.03,4.33,0,1.98-1.55,3.34-3.11,4.51l-3.51,2.65Z"/>
            <path class="cls-2" d="m147.37,119.46c-3.97,0-5.69-3.36-5.69-7.46s1.72-7.46,5.69-7.46,5.69,3.36,5.69,7.46-1.7,7.46-5.69,7.46Zm0-2.76c2.16,0,2.76-2.57,2.76-4.7s-.6-4.7-2.76-4.7-2.76,2.57-2.76,4.7.6,4.7,2.76,4.7Z"/>
            <path class="cls-2" d="m159.26,116.03c-.09.07-.19.17-.19.3,0,.11.09.19.21.19h6.49v2.76h-7.63c-1.42,0-2.59-.82-2.59-2.35,0-1.23.99-2.18,2.07-2.98l3.41-2.57c.89-.67,1.88-1.29,1.88-2.39s-.9-1.72-2.09-1.72c-1.32,0-2.48.95-2.5,2.31h-2.98c.15-3.02,2.35-5.03,5.5-5.03,2.87,0,5.03,1.57,5.03,4.33,0,1.98-1.55,3.34-3.11,4.51l-3.51,2.65Z"/>
          </g>
          <path class="cls-2" d="m171.94,112.26v-1.26c0-.28.07-.43.3-.6l2.73-2.18c.15-.13.22-.2.22-.35,0-.22-.15-.35-.41-.35h-5.69v-2.75h6.77c1.84,0,2.68.86,2.68,2.23,0,1.04-.82,1.8-1.65,2.45l-1.67,1.3c2.1.39,3.68,1.71,3.68,4.09,0,2.77-2.27,4.61-5.22,4.61s-5-1.65-5.36-4.43h3.07c.28,1.19,1.1,1.67,2.31,1.67,1.36,0,2.29-.74,2.29-1.86,0-1.23-.86-1.84-2.14-1.84h-1.15c-.46,0-.74-.28-.74-.74Z"/>
        </g>
        <g>
          <g>
            <circle class="cls-2" cx="99.14" cy="53.42" r="9.2"/>
            <path class="cls-2" d="m133.81,53.42l-28.89-28.89c-3.19-3.19-8.37-3.19-11.56,0l-28.89,28.89h12.25s21.57-21.57,21.57-21.57c.66-.66,1.74-.66,2.4,0l21.57,21.57h11.56Z"/>
          </g>
          <g>
            <circle class="cls-2" cx="64.47" cy="88.09" r="9.2"/>
            <path class="cls-2" d="m99.14,88.09l-28.89-28.89c-3.19-3.19-8.37-3.19-11.56,0l-28.89,28.89h12.25s21.57-21.57,21.57-21.57c.66-.66,1.74-.66,2.4,0l21.57,21.57h11.56Z"/>
          </g>
          <g>
            <circle class="cls-2" cx="133.81" cy="88.09" r="9.2"/>
            <path class="cls-2" d="m168.48,88.09l-28.89-28.89c-3.19-3.19-8.37-3.19-11.56,0l-28.89,28.89h12.25s21.57-21.57,21.57-21.57c.66-.66,1.74-.66,2.4,0l21.57,21.57h11.56Z"/>
          </g>
        </g>
      </g>
      <g>
        <rect class="cls-4" x="19.27" y="134.59" width="160.17" height="1.13"/>
        <g>
          <g>
            <g>
              <path class="cls-4" d="m54.5,152.11l-3.58,9.78h-1.73l-2.88-7.9-2.89,7.9h-1.72l-3.59-9.78h1.79l2.7,7.83,2.91-7.83h1.65l2.89,7.83,2.71-7.83h1.75Z"/>
              <path class="cls-4" d="m55.33,157c0-3.23,2.32-5.18,6.08-5.18s6.08,1.96,6.08,5.18-2.32,5.18-6.08,5.18-6.08-1.96-6.08-5.18Zm10.44,0c0-2.38-1.7-3.7-4.36-3.7s-4.37,1.33-4.37,3.7,1.7,3.7,4.37,3.7,4.36-1.33,4.36-3.7Z"/>
              <path class="cls-4" d="m78.6,161.89l-3.03-3.55h-4.12v3.55h-1.68v-9.78h6.65c2.28,0,3.95,1.09,3.95,3.12,0,1.69-1.17,2.72-2.88,3.03l3.17,3.63h-2.07Zm-2.29-4.99c1.4,0,2.35-.45,2.35-1.66s-.95-1.66-2.35-1.66h-4.88v3.33h4.88Z"/>
              <path class="cls-4" d="m91.63,160.41v1.48h-8.89v-9.78h1.68v8.3h7.21Z"/>
              <path class="cls-4" d="m104.32,157c0,3.02-2.32,4.89-5.95,4.89h-4.96v-9.78h4.96c3.63,0,5.95,1.87,5.95,4.89Zm-1.72,0c0-2.26-1.79-3.42-4.36-3.42h-3.16v6.85h3.16c2.57,0,4.36-1.16,4.36-3.42Z"/>
              <path class="cls-4" d="m118.3,159.53h-6.27l-1.24,2.36h-1.82l5.3-9.78h1.84l5.28,9.78h-1.83l-1.26-2.36Zm-.74-1.43l-2.39-4.53-2.39,4.53h4.78Z"/>
              <path class="cls-4" d="m131.93,161.1l1.36,1.47-.96.87-1.59-1.72c-.82.32-1.79.47-2.88.47-3.76,0-6.08-1.96-6.08-5.18s2.32-5.18,6.08-5.18,6.08,1.96,6.08,5.18c0,1.79-.71,3.2-2,4.09Zm-2.35-.61l-1.45-1.57.98-.87,1.72,1.86c.88-.63,1.38-1.62,1.38-2.91,0-2.38-1.7-3.7-4.36-3.7s-4.37,1.33-4.37,3.7,1.7,3.7,4.37,3.7c.63,0,1.22-.07,1.73-.22Z"/>
              <path class="cls-4" d="m146.66,152.11v5.17c0,2.89-1.86,4.9-5.32,4.9s-5.31-2.01-5.31-4.9v-5.17h1.68v5.06c0,2.19,1.3,3.52,3.63,3.52s3.65-1.33,3.65-3.52v-5.06h1.68Z"/>
              <path class="cls-4" d="m156.89,159.53h-6.27l-1.24,2.36h-1.82l5.3-9.78h1.84l5.28,9.78h-1.83l-1.26-2.36Zm-.74-1.43l-2.39-4.53-2.39,4.53h4.78Z"/>
              <path class="cls-4" d="m169.38,153.58h-4.46v8.31h-1.68v-8.31h-4.43v-1.47h10.56v1.47Z"/>
              <path class="cls-4" d="m171.14,161.89v-9.78h1.68v9.78h-1.68Z"/>
              <path class="cls-4" d="m184.68,158.97l1.55.77c-.92,1.43-2.71,2.45-5.18,2.45-3.66,0-5.97-1.97-5.97-5.18s2.31-5.18,6.04-5.18c2.4,0,4.19,1.03,5.1,2.43l-1.57.78c-.73-1.2-1.97-1.73-3.56-1.73-2.59,0-4.3,1.26-4.3,3.7s1.72,3.7,4.3,3.7c1.59,0,2.85-.52,3.59-1.73Z"/>
              <path class="cls-4" d="m198.27,159c0,1.86-1.83,3.19-5.16,3.19-2.29,0-4.32-.67-5.84-1.98l1.05-1.19c1.33,1.19,2.89,1.72,4.86,1.72,2.18,0,3.38-.57,3.38-1.59s-1.23-1.27-3.69-1.48c-2.7-.22-5.24-.82-5.24-2.82s2.25-3.02,5.06-3.02c2.12,0,3.93.63,5.1,1.62l-1.06,1.15c-1.01-.88-2.39-1.3-4.01-1.31-1.55-.01-3.4.36-3.4,1.45s1.63,1.22,3.77,1.38c3.05.24,5.17.85,5.17,2.89Z"/>
            </g>
            <g>
              <path class="cls-4" d="m44.01,175.11c1.48,0,2.57-.53,3.26-1.6l2.04,1.02c-.5.74-1.21,1.34-2.14,1.81-.93.47-2.01.7-3.23.7-1.86,0-3.33-.46-4.43-1.39s-1.65-2.2-1.65-3.81.55-2.9,1.66-3.82c1.11-.92,2.61-1.39,4.51-1.39,1.18,0,2.23.24,3.15.71.92.47,1.62,1.07,2.1,1.78l-2.06,1.02c-.67-1.05-1.75-1.58-3.22-1.58-1.19,0-2.13.28-2.82.85-.7.56-1.04,1.37-1.04,2.43s.35,1.86,1.04,2.43c.69.56,1.64.85,2.82.85Z"/>
              <path class="cls-4" d="m59.91,170.79v-3.85h2.24v9.8h-2.24v-3.99h-6.68v3.99h-2.24v-9.8h2.24v3.85h6.68Z"/>
              <path class="cls-4" d="m76.33,176.74h-2.42l-1.05-2.07h-5.92l-1.05,2.07h-2.39l5.19-9.8h2.45l5.19,9.8Zm-6.44-7.88l-2.03,3.99h4.06l-2.03-3.99Z"/>
              <path class="cls-4" d="m84.24,172.12l4.14-5.18h2.39v9.8h-2.24v-6.82l-4.3,5.25h-.11l-4.3-5.25v6.82h-2.17v-9.8h2.44l4.14,5.18Z"/>
              <path class="cls-4" d="m93.41,166.94h6.71c1.29,0,2.31.29,3.07.87.76.58,1.13,1.4,1.13,2.45s-.38,1.88-1.13,2.46c-.76.57-1.78.86-3.07.86h-4.47v3.16h-2.24v-9.8Zm2.24,4.79h4.28c.68,0,1.2-.11,1.56-.33s.54-.6.54-1.13-.18-.91-.54-1.13c-.36-.22-.88-.33-1.56-.33h-4.28v2.91Z"/>
              <path class="cls-4" d="m108.3,166.94v9.8h-2.24v-9.8h2.24Z"/>
              <path class="cls-4" d="m121.1,175.66c-1.12.92-2.63,1.39-4.56,1.39s-3.44-.46-4.56-1.39c-1.12-.92-1.67-2.2-1.67-3.82s.56-2.9,1.67-3.82c1.12-.92,2.63-1.39,4.56-1.39s3.44.46,4.56,1.39c1.12.92,1.67,2.2,1.67,3.82s-.56,2.9-1.67,3.82Zm-4.56-.55c1.22,0,2.19-.29,2.89-.86.7-.57,1.06-1.38,1.06-2.42s-.35-1.84-1.06-2.42c-.7-.57-1.67-.86-2.89-.86s-2.19.29-2.89.86c-.71.57-1.06,1.38-1.06,2.42s.35,1.84,1.05,2.42c.7.57,1.67.86,2.9.86Z"/>
              <path class="cls-4" d="m133.78,173.66v-6.72h2.17v9.8h-1.96l-7.03-7.08v7.08h-2.17v-9.8h2.38l6.61,6.72Z"/>
              <path class="cls-4" d="m143.66,170.7c.84.07,1.56.16,2.16.29s1.15.3,1.65.53.88.53,1.13.9c.25.37.38.82.38,1.34,0,.99-.46,1.78-1.38,2.38s-2.23.9-3.93.9c-2.45,0-4.44-.66-5.99-1.97l1.29-1.53c1.18,1.08,2.76,1.62,4.76,1.62s3-.4,3-1.19c0-.38-.24-.66-.73-.83s-1.33-.3-2.53-.41c-.77-.06-1.46-.16-2.04-.27-.59-.12-1.15-.28-1.69-.5-.54-.21-.95-.51-1.24-.88-.29-.37-.43-.81-.43-1.31,0-1,.48-1.78,1.44-2.33.96-.56,2.22-.83,3.77-.83,2.2,0,3.95.5,5.24,1.5l-1.23,1.55c-1.01-.77-2.34-1.16-4-1.18-.36,0-.71.02-1.03.05-.32.03-.63.09-.94.17-.3.08-.54.2-.72.35s-.27.34-.27.55c0,.36.24.61.73.73s1.3.24,2.44.33c.08,0,.14.01.18.01Z"/>
              <path class="cls-4" d="m159.72,170.79v-3.85h2.24v9.8h-2.24v-3.99h-6.68v3.99h-2.24v-9.8h2.24v3.85h6.68Z"/>
              <path class="cls-4" d="m166.83,166.94v9.8h-2.24v-9.8h2.24Z"/>
              <path class="cls-4" d="m169.46,166.94h6.71c1.29,0,2.31.29,3.07.87.76.58,1.13,1.4,1.13,2.45s-.38,1.88-1.13,2.46c-.76.57-1.78.86-3.07.86h-4.47v3.16h-2.24v-9.8Zm2.24,4.79h4.28c.68,0,1.2-.11,1.56-.33s.54-.6.54-1.13-.18-.91-.54-1.13c-.36-.22-.88-.33-1.56-.33h-4.28v2.91Z"/>
              <path class="cls-4" d="m187.18,170.7c.84.07,1.56.16,2.16.29s1.15.3,1.65.53.88.53,1.13.9c.25.37.38.82.38,1.34,0,.99-.46,1.78-1.38,2.38s-2.23.9-3.93.9c-2.45,0-4.44-.66-5.99-1.97l1.29-1.53c1.18,1.08,2.76,1.62,4.76,1.62s3-.4,3-1.19c0-.38-.24-.66-.73-.83s-1.33-.3-2.53-.41c-.77-.06-1.46-.16-2.04-.27-.59-.12-1.15-.28-1.69-.5-.54-.21-.95-.51-1.24-.88-.29-.37-.43-.81-.43-1.31,0-1,.48-1.78,1.44-2.33.96-.56,2.22-.83,3.77-.83,2.2,0,3.95.5,5.24,1.5l-1.23,1.55c-1.01-.77-2.34-1.16-4-1.18-.36,0-.71.02-1.03.05-.32.03-.63.09-.94.17-.3.08-.54.2-.72.35s-.27.34-.27.55c0,.36.24.61.73.73s1.3.24,2.44.33c.08,0,.14.01.18.01Z"/>
            </g>
          </g>
          <g>
            <path class="cls-1" d="m24.58,166.57h-2.36c-1.19,0-2.15-.96-2.15-2.15s.96-2.15,2.15-2.15h2.36c1.19,0,2.15.96,2.15,2.15s-.96,2.15-2.15,2.15Zm-6.82-7.84c0-1.19-.96-2.15-2.15-2.15h-7.87c-1.19,0-2.15.96-2.15,2.15s.96,2.15,2.15,2.15h7.87c1.19,0,2.15-.96,2.15-2.15Zm.75,13.55h9.16c1.19,0,2.15-.96,2.15-2.15s-.96-2.15-2.15-2.15h-9.16c-1.19,0-2.15.96-2.15,2.15s.96,2.15,2.15,2.15Zm-2.61-19.25c0-1.19-.96-2.15-2.15-2.15h-5.14c-1.19,0-2.15.96-2.15,2.15s.96,2.15,2.15,2.15h5.14c1.19,0,2.15-.96,2.15-2.15Z"/>
            <circle class="cls-4" cx="28.91" cy="164.44" r="2.18"/>
            <circle class="cls-4" cx="3.43" cy="158.74" r="2.18"/>
            <circle class="cls-4" cx="14.19" cy="170.14" r="2.18"/>
            <path class="cls-5" d="m22.47,177.99h-13.86c-1.19,0-2.15-.96-2.15-2.15s.96-2.15,2.15-2.15h13.86c1.19,0,2.15.96,2.15,2.15s-.96,2.15-2.15,2.15Zm-2.4-13.56c0-1.19-.96-2.15-2.15-2.15H2.15c-1.19,0-2.15.96-2.15,2.15s.96,2.15,2.15,2.15h15.78c1.19,0,2.15-.96,2.15-2.15Zm9.76-5.69c0-1.19-.96-2.15-2.15-2.15h-7.78c-1.19,0-2.15.96-2.15,2.15s.96,2.15,2.15,2.15h7.78c1.19,0,2.15-.96,2.15-2.15Zm-26.42,13.55h2.11c1.19,0,2.15-.96,2.15-2.15,0-1.19-.96-2.15-2.15-2.15h-2.11c-1.19,0-2.15.96-2.15,2.15s.96,2.15,2.15,2.15Z"/>
            <circle class="cls-4" cx="9.84" cy="170.14" r="2.18"/>
            <circle class="cls-4" cx="18.08" cy="153.03" r="2.18"/>
            <circle class="cls-4" cx="22.43" cy="153.03" r="2.18"/>
          </g>
        </g>
      </g>
    </g>
  </g>
</svg>